HIERARCHY
ROOT mixamorig:Hips
{
	OFFSET 0.000000 201.639420 0.000000
	CHANNELS 6 Xposition Yposition Zposition Xrotation Yrotation Zrotation
	JOINT mixamorig:Spine
	{
		OFFSET 0.006200 19.524994 -2.481800
		CHANNELS 3 Xrotation Yrotation Zrotation
		JOINT mixamorig:Spine1
		{
			OFFSET -0.000900 22.835007 -2.825400
			CHANNELS 3 Xrotation Yrotation Zrotation
			JOINT mixamorig:Spine2
			{
				OFFSET -0.020600 26.552490 -3.193300
				CHANNELS 3 Xrotation Yrotation Zrotation
				JOINT mixamorig:Neck
				{
					OFFSET -0.060000 30.701813 1.352200
					CHANNELS 3 Xrotation Yrotation Zrotation
					JOINT mixamorig:Head
					{
						OFFSET -0.087200 22.547607 3.670900
						CHANNELS 3 Xrotation Yrotation Zrotation
						JOINT mixamorig:HeadTop_End
						{
							OFFSET -0.830600 40.355194 7.893500
							CHANNELS 3 Xrotation Yrotation Zrotation
							End Site
							{
								OFFSET 0.000000 30.592346 0.000000
							}
						}
						JOINT mixamorig:RightEye
						{
							OFFSET -6.302100 18.118591 16.197100
							CHANNELS 3 Xrotation Yrotation Zrotation
							End Site
							{
								OFFSET 0.000000 30.592346 0.000000
							}
						}
						JOINT mixamorig:LeftEye
						{
							OFFSET 6.741500 18.382690 16.401899
							CHANNELS 3 Xrotation Yrotation Zrotation
							End Site
							{
								OFFSET 0.000000 30.592346 0.000000
							}
						}
					}
				}
				JOINT mixamorig:LeftShoulder
				{
					OFFSET 11.924900 18.230499 1.425400
					CHANNELS 3 Xrotation Yrotation Zrotation
					JOINT mixamorig:LeftArm
					{
						OFFSET 25.435989 -0.697632 -5.229300
						CHANNELS 3 Xrotation Yrotation Zrotation
						JOINT mixamorig:LeftForeArm
						{
							OFFSET 54.684776 0.000000 0.000000
							CHANNELS 3 Xrotation Yrotation Zrotation
							JOINT mixamorig:LeftHand
							{
								OFFSET 55.098175 0.000000 0.000000
								CHANNELS 3 Xrotation Yrotation Zrotation
								JOINT mixamorig:LeftHandMiddle1
								{
									OFFSET 23.369751 0.000000 0.000000
									CHANNELS 3 Xrotation Yrotation Zrotation
									JOINT mixamorig:LeftHandMiddle2
									{
										OFFSET 6.378677 0.000000 0.000000
										CHANNELS 3 Xrotation Yrotation Zrotation
										JOINT mixamorig:LeftHandMiddle3
										{
											OFFSET 6.148331 0.000000 0.000000
											CHANNELS 3 Xrotation Yrotation Zrotation
											JOINT mixamorig:LeftHandMiddle4
											{
												OFFSET 6.582504 0.000000 0.000000
												CHANNELS 3 Xrotation Yrotation Zrotation
												End Site
												{
													OFFSET -1.168900 6.395691 1.028606
												}
											}
										}
									}
								}
								JOINT mixamorig:LeftHandThumb1
								{
									OFFSET 7.235672 -3.848206 5.434273
									CHANNELS 3 Xrotation Yrotation Zrotation
									JOINT mixamorig:LeftHandThumb2
									{
										OFFSET 6.568451 -3.792297 3.792300
										CHANNELS 3 Xrotation Yrotation Zrotation
										JOINT mixamorig:LeftHandThumb3
										{
											OFFSET 6.063080 -3.500519 3.500518
											CHANNELS 3 Xrotation Yrotation Zrotation
											JOINT mixamorig:LeftHandThumb4
											{
												OFFSET 4.793182 -2.767334 2.767349
												CHANNELS 3 Xrotation Yrotation Zrotation
												End Site
												{
													OFFSET 0.101639 6.054260 1.275483
												}
											}
										}
									}
								}
								JOINT mixamorig:LeftHandIndex1
								{
									OFFSET 23.101074 -0.309540 4.992809
									CHANNELS 3 Xrotation Yrotation Zrotation
									JOINT mixamorig:LeftHandIndex2
									{
										OFFSET 6.226883 0.000000 0.000000
										CHANNELS 3 Xrotation Yrotation Zrotation
										JOINT mixamorig:LeftHandIndex3
										{
											OFFSET 6.094330 0.000000 0.000000
											CHANNELS 3 Xrotation Yrotation Zrotation
											JOINT mixamorig:LeftHandIndex4
											{
												OFFSET 5.482605 0.000000 0.000000
												CHANNELS 3 Xrotation Yrotation Zrotation
												End Site
												{
													OFFSET -1.427902 5.233032 0.797164
												}
											}
										}
									}
								}
								JOINT mixamorig:LeftHandRing1
								{
									OFFSET 22.299240 0.021149 -3.964172
									CHANNELS 3 Xrotation Yrotation Zrotation
									JOINT mixamorig:LeftHandRing2
									{
										OFFSET 6.321869 0.000000 0.000000
										CHANNELS 3 Xrotation Yrotation Zrotation
										JOINT mixamorig:LeftHandRing3
										{
											OFFSET 5.899796 0.000000 0.000000
											CHANNELS 3 Xrotation Yrotation Zrotation
											JOINT mixamorig:LeftHandRing4
											{
												OFFSET 6.517899 0.000000 0.000000
												CHANNELS 3 Xrotation Yrotation Zrotation
												End Site
												{
													OFFSET -1.637299 6.232208 0.980890
												}
											}
										}
									}
								}
								JOINT mixamorig:LeftHandPinky1
								{
									OFFSET 20.463791 -0.302338 -8.562233
									CHANNELS 3 Xrotation Yrotation Zrotation
									JOINT mixamorig:LeftHandPinky2
									{
										OFFSET 6.908646 0.000000 0.000000
										CHANNELS 3 Xrotation Yrotation Zrotation
										JOINT mixamorig:LeftHandPinky3
										{
											OFFSET 4.622849 0.000000 0.000000
											CHANNELS 3 Xrotation Yrotation Zrotation
											JOINT mixamorig:LeftHandPinky4
											{
												OFFSET 5.216080 0.000000 0.000000
												CHANNELS 3 Xrotation Yrotation Zrotation
												End Site
												{
													OFFSET -0.606308 5.116241 0.814926
												}
											}
										}
									}
								}
							}
						}
					}
				}
				JOINT mixamorig:RightShoulder
				{
					OFFSET -12.001300 18.284088 1.348900
					CHANNELS 3 Xrotation Yrotation Zrotation
					JOINT mixamorig:RightArm
					{
						OFFSET -25.308500 -0.751312 -5.164599
						CHANNELS 3 Xrotation Yrotation Zrotation
						JOINT mixamorig:RightForeArm
						{
							OFFSET -54.684429 0.000000 0.000000
							CHANNELS 3 Xrotation Yrotation Zrotation
							JOINT mixamorig:RightHand
							{
								OFFSET -55.150291 0.000000 0.000000
								CHANNELS 3 Xrotation Yrotation Zrotation
								JOINT mixamorig:RightHandMiddle1
								{
									OFFSET -23.317566 0.000000 0.000000
									CHANNELS 3 Xrotation Yrotation Zrotation
									JOINT mixamorig:RightHandMiddle2
									{
										OFFSET -6.378403 0.000000 0.000000
										CHANNELS 3 Xrotation Yrotation Zrotation
										JOINT mixamorig:RightHandMiddle3
										{
											OFFSET -6.148193 0.000000 0.000000
											CHANNELS 3 Xrotation Yrotation Zrotation
											JOINT mixamorig:RightHandMiddle4
											{
												OFFSET -6.583389 0.000000 0.000000
												CHANNELS 3 Xrotation Yrotation Zrotation
												End Site
												{
													OFFSET 1.171692 6.395905 1.029786
												}
											}
										}
									}
								}
								JOINT mixamorig:RightHandThumb1
								{
									OFFSET -7.190521 -3.860474 5.435846
									CHANNELS 3 Xrotation Yrotation Zrotation
									JOINT mixamorig:RightHandThumb2
									{
										OFFSET -6.567429 -3.791718 3.791708
										CHANNELS 3 Xrotation Yrotation Zrotation
										JOINT mixamorig:RightHandThumb3
										{
											OFFSET -6.062469 -3.500153 3.500166
											CHANNELS 3 Xrotation Yrotation Zrotation
											JOINT mixamorig:RightHandThumb4
											{
												OFFSET -4.792618 -2.767029 2.767022
												CHANNELS 3 Xrotation Yrotation Zrotation
												End Site
												{
													OFFSET -0.100327 6.053253 1.276754
												}
											}
										}
									}
								}
								JOINT mixamorig:RightHandIndex1
								{
									OFFSET -23.048981 -0.310791 4.992554
									CHANNELS 3 Xrotation Yrotation Zrotation
									JOINT mixamorig:RightHandIndex2
									{
										OFFSET -6.227539 0.000000 0.000000
										CHANNELS 3 Xrotation Yrotation Zrotation
										JOINT mixamorig:RightHandIndex3
										{
											OFFSET -6.095047 0.000000 0.000000
											CHANNELS 3 Xrotation Yrotation Zrotation
											JOINT mixamorig:RightHandIndex4
											{
												OFFSET -5.484772 0.000000 0.000000
												CHANNELS 3 Xrotation Yrotation Zrotation
												End Site
												{
													OFFSET 1.420593 5.237305 0.797056
												}
											}
										}
									}
								}
								JOINT mixamorig:RightHandRing1
								{
									OFFSET -22.246323 0.020569 -3.963762
									CHANNELS 3 Xrotation Yrotation Zrotation
									JOINT mixamorig:RightHandRing2
									{
										OFFSET -6.322128 0.000000 0.000000
										CHANNELS 3 Xrotation Yrotation Zrotation
										JOINT mixamorig:RightHandRing3
										{
											OFFSET -5.900024 0.000000 0.000000
											CHANNELS 3 Xrotation Yrotation Zrotation
											JOINT mixamorig:RightHandRing4
											{
												OFFSET -6.518356 0.000000 0.000000
												CHANNELS 3 Xrotation Yrotation Zrotation
												End Site
												{
													OFFSET 1.636398 6.232697 0.982186
												}
											}
										}
									}
								}
								JOINT mixamorig:RightHandPinky1
								{
									OFFSET -20.411011 -0.303314 -8.561701
									CHANNELS 3 Xrotation Yrotation Zrotation
									JOINT mixamorig:RightHandPinky2
									{
										OFFSET -6.907349 0.000000 0.000000
										CHANNELS 3 Xrotation Yrotation Zrotation
										JOINT mixamorig:RightHandPinky3
										{
											OFFSET -4.623840 0.000000 0.000000
											CHANNELS 3 Xrotation Yrotation Zrotation
											JOINT mixamorig:RightHandPinky4
											{
												OFFSET -5.218353 0.000000 0.000000
												CHANNELS 3 Xrotation Yrotation Zrotation
												End Site
												{
													OFFSET 0.602097 5.118835 0.816273
												}
											}
										}
									}
								}
							}
						}
					}
				}
			}
		}
	}
	JOINT mixamorig:LeftUpLeg
	{
		OFFSET 18.168400 -13.561905 -0.039000
		CHANNELS 3 Xrotation Yrotation Zrotation
		JOINT mixamorig:LeftLeg
		{
			OFFSET 0.577358 -80.825211 -3.695000
			CHANNELS 3 Xrotation Yrotation Zrotation
			JOINT mixamorig:LeftFoot
			{
				OFFSET -0.577356 -83.370262 -6.520700
				CHANNELS 3 Xrotation Yrotation Zrotation
				JOINT mixamorig:LeftToeBase
				{
					OFFSET 0.750401 -20.798306 25.135401
					CHANNELS 3 Xrotation Yrotation Zrotation
					JOINT mixamorig:LeftToe_End
					{
						OFFSET -0.000500 0.001200 19.917799
						CHANNELS 3 Xrotation Yrotation Zrotation
						End Site
						{
							OFFSET 0.000000 19.917805 0.000000
						}
					}
				}
			}
		}
	}
	JOINT mixamorig:RightUpLeg
	{
		OFFSET -18.162500 -13.585098 -0.041000
		CHANNELS 3 Xrotation Yrotation Zrotation
		JOINT mixamorig:RightLeg
		{
			OFFSET -0.595024 -80.945297 -3.631900
			CHANNELS 3 Xrotation Yrotation Zrotation
			JOINT mixamorig:RightFoot
			{
				OFFSET 0.595024 -83.218193 -6.561200
				CHANNELS 3 Xrotation Yrotation Zrotation
				JOINT mixamorig:RightToeBase
				{
					OFFSET -0.753601 -20.807106 25.115000
					CHANNELS 3 Xrotation Yrotation Zrotation
					JOINT mixamorig:RightToe_End
					{
						OFFSET 0.000299 0.001700 19.918200
						CHANNELS 3 Xrotation Yrotation Zrotation
						End Site
						{
							OFFSET 0.000000 19.918203 0.000000
						}
					}
				}
			}
		}
	}
}
MOTION
Frames: 5
Frame Time: 0.033333
2.271652 199.990265 4.127693 -0.009018 0.104958 -2.870472 0.255450 1.150264 -3.793222 0.136558 2.485683 -0.613422 0.141352 2.491231 -0.617944 3.362800 -0.192677 0.272323 15.742061 -0.590797 0.981402 0.000001 -0.000000 0.000000 0.000001 -0.000000 0.000000 0.000001 -0.000000 0.000000 2.193225 -4.706785 6.329046 9.948231 -33.259948 -62.536884 0.000003 -30.335940 0.000012 -36.637422 26.702382 11.553755 0.034183 0.686667 -5.699631 0.028301 0.624940 -5.185752 0.007035 0.311827 -2.584830 -0.000000 -0.000000 -0.000000 -1.572084 6.188896 6.514339 4.913659 20.147310 1.628180 -0.026623 7.660114 3.130053 -0.000001 0.000002 -0.000001 0.034375 0.688588 -5.715606 0.028127 0.623020 -5.169775 0.007036 0.311826 -2.584835 0.000000 0.000000 -0.000002 0.034373 0.688589 -5.715616 0.028128 0.623021 -5.169779 0.007034 0.311827 -2.584814 0.000000 0.000000 -0.000000 0.421171 4.724438 -5.223453 0.015653 -3.431508 -5.678487 0.007036 0.311826 -2.584804 0.000001 0.000000 -0.000000 -1.136359 -5.303392 -12.136526 -108.329607 -8.604088 34.200851 -0.000012 140.484793 -0.000009 -27.682221 4.572293 1.267592 2.250034 -5.124829 47.384789 2.260828 -5.134710 47.505451 0.588644 -2.804578 23.702025 0.000001 -0.000000 0.000003 -1.872397 -5.469144 -6.879517 5.850893 -22.486359 -1.123803 -0.647529 -6.770143 -2.821718 -0.000002 0.000000 -0.000000 2.250024 -5.124837 47.384786 2.260833 -5.134678 47.505451 0.588629 -2.804585 23.702037 -0.000001 -0.000001 0.000000 2.250024 -5.124849 47.384789 2.260840 -5.134704 47.505448 0.588632 -2.804570 23.702030 -0.000000 0.000000 0.000001 2.250025 -5.124830 47.384786 2.260835 -5.134706 47.505451 0.588641 -2.804579 23.702025 0.000000 0.000001 -0.000000 -12.985334 -1.741910 6.069948 19.109257 9.051035 -0.854309 -5.178230 3.722345 -3.495607 -0.109948 -0.000005 -0.000001 -0.000000 0.000000 0.000000 -9.613090 -3.776925 0.162176 10.472226 -8.015562 -1.424784 -0.480823 -5.337579 3.549870 -0.210647 -0.000008 0.000001 -0.000000 -0.000002 -0.000000 
2.677278 199.836899 3.782936 -0.129784 -0.524770 -3.004585 0.265033 1.181512 -3.635794 0.196842 2.528171 -0.598819 0.203881 2.532931 -0.604322 3.080501 -0.187756 0.348400 15.620747 -0.434223 0.857924 -0.000000 0.000000 0.000000 -0.000000 0.000000 0.000000 -0.000000 0.000000 0.000000 2.200103 -4.740864 6.029519 10.080689 -33.825354 -62.198592 0.000016 -30.029801 0.000011 -36.389090 27.446400 11.518710 0.031194 0.656034 -5.444551 0.025606 0.594500 -4.932523 0.006365 0.296564 -2.458203 -0.000000 0.000000 0.000001 -1.573792 6.294183 6.530092 4.927885 20.338290 1.640678 -0.018435 7.755370 3.138927 0.000001 0.000002 0.000000 0.031377 0.657955 -5.460546 0.025441 0.592578 -4.916521 0.006364 0.296563 -2.458223 -0.000001 0.000000 -0.000001 0.031377 0.657957 -5.460533 0.025441 0.592579 -4.916532 0.006365 0.296562 -2.458228 -0.000000 0.000000 -0.000000 0.400142 4.695488 -4.967336 0.012690 -3.461924 -5.425442 0.006365 0.296564 -2.458227 0.000000 0.000000 0.000001 -1.527063 -6.130085 -13.005699 -108.638947 -9.605590 36.463767 -0.000013 140.249643 0.000011 -32.467328 3.569011 3.971231 2.246679 -5.121745 47.347121 2.257745 -5.131876 47.470843 0.587792 -2.802674 23.684825 0.000000 0.000001 0.000002 -1.872273 -5.461040 -6.878248 5.831580 -22.253863 -1.110681 -0.657351 -6.654204 -2.810085 0.000002 0.000005 0.000002 2.246671 -5.121748 47.347110 2.257746 -5.131846 47.470843 0.587796 -2.802676 23.684830 -0.000001 0.000000 -0.000001 2.246681 -5.121751 47.347097 2.257749 -5.131868 47.470836 0.587787 -2.802664 23.684847 -0.000001 -0.000003 -0.000000 2.246682 -5.121735 47.347110 2.257739 -5.131866 47.470843 0.587802 -2.802662 23.684823 -0.000001 0.000000 -0.000002 -13.308425 -1.536550 6.057480 19.893184 9.053118 -0.697263 -5.535551 4.002558 -3.520458 -0.101936 -0.000002 -0.000001 -0.000000 0.000000 0.000000 -9.880452 -3.121819 0.201487 10.788531 -7.905515 -1.343278 -0.267423 -5.047688 3.657311 -0.205904 -0.000009 -0.000000 -0.000000 0.000000 0.000000 
3.066582 199.525665 3.403754 -0.274213 -1.202119 -3.297949 0.207333 1.153450 -3.332693 0.216914 2.388396 -0.627562 0.227606 2.391980 -0.633650 2.779452 -0.216509 0.520774 15.595576 -0.299907 0.754188 -0.000001 0.000000 -0.000000 -0.000001 0.000000 -0.000000 -0.000001 0.000000 -0.000000 2.213810 -4.798146 5.712208 10.567454 -34.171139 -61.705076 0.000007 -30.387645 0.000005 -36.649996 28.871968 11.932624 0.028518 0.627347 -5.205787 0.023214 0.566066 -4.696049 0.005766 0.282305 -2.339977 -0.000001 -0.000001 0.000000 -1.575430 6.392961 6.544876 4.941157 20.517087 1.652399 -0.010773 7.844547 3.147181 -0.000001 -0.000003 0.000002 0.028696 0.629269 -5.221797 0.023052 0.564143 -4.680050 0.005764 0.282306 -2.339964 -0.000000 -0.000000 -0.000001 0.028693 0.629270 -5.221791 0.023052 0.564144 -4.680048 0.005767 0.282306 -2.339972 0.000000 -0.000000 -0.000002 0.380573 4.668304 -4.727631 0.010043 -3.490340 -5.189144 0.005767 0.282309 -2.339980 0.000002 0.000001 -0.000000 -2.026551 -7.091438 -13.874069 -108.263204 -9.940433 38.888027 0.000012 138.382583 -0.000010 -35.622384 4.097701 5.267987 2.200276 -5.078768 46.825062 2.198072 -5.076717 46.800326 0.571599 -2.765505 23.351426 0.000000 0.000001 0.000001 -1.871175 -5.387383 -6.866761 5.803393 -21.915138 -1.091453 -0.671729 -6.485310 -2.793117 0.000002 0.000000 -0.000001 2.200274 -5.078766 46.825059 2.198062 -5.076689 46.800330 0.571594 -2.765506 23.351430 -0.000000 -0.000001 -0.000002 2.200271 -5.078780 46.825048 2.198081 -5.076714 46.800323 0.571583 -2.765495 23.351435 -0.000001 -0.000001 0.000004 2.200279 -5.078758 46.825062 2.198061 -5.076711 46.800316 0.571598 -2.765494 23.351430 0.000001 -0.000002 0.000001 -13.957627 -1.392110 6.217066 21.362154 9.074286 -0.532277 -6.208045 4.302416 -3.628849 -0.095246 0.000006 0.000001 -0.000000 0.000001 0.000000 -10.386867 -2.748029 0.372171 11.556086 -7.746858 -1.258428 -0.121070 -4.585424 3.764833 -0.200592 0.000010 0.000000 0.000000 0.000002 0.000000 
3.236242 199.443024 3.081920 -0.376688 -1.787793 -3.332136 0.238997 1.202323 -3.279751 0.298753 2.474929 -0.634972 0.311013 2.477665 -0.641506 2.403157 -0.261193 0.761611 15.537569 -0.158113 0.820103 -0.000003 0.000000 -0.000001 -0.000003 0.000000 -0.000001 -0.000003 0.000000 -0.000001 2.208217 -4.800173 5.316700 10.634080 -34.937111 -61.240678 -0.000003 -30.011219 -0.000004 -36.453201 29.608047 11.808688 0.026142 0.600688 -4.983991 0.021098 0.539704 -4.476872 0.005239 0.269094 -2.230406 0.000001 -0.000000 -0.000001 -1.576979 6.485429 6.558669 4.953530 20.684057 1.663313 -0.003612 7.927820 3.154872 0.000000 -0.000000 -0.000003 0.026310 0.602609 -4.999975 0.020946 0.537781 -4.460886 0.005236 0.269093 -2.230406 -0.000001 0.000000 0.000001 0.026310 0.602610 -4.999987 0.020943 0.537782 -4.460877 0.005240 0.269094 -2.230407 -0.000001 0.000000 -0.000001 0.362498 4.642975 -4.504940 0.007697 -3.516679 -4.970158 0.005238 0.269095 -2.230401 -0.000001 0.000001 0.000000 -2.413720 -7.864678 -14.699499 -107.042977 -11.193795 41.569665 0.000009 138.102627 0.000004 -37.994167 3.885423 6.303195 2.049383 -4.933429 45.096109 2.004367 -4.888300 44.570113 0.519286 -2.641165 22.242257 0.000003 0.000000 -0.000004 -1.869144 -5.246392 -6.844813 5.766242 -21.469846 -1.065979 -0.690690 -6.263279 -2.770702 -0.000002 -0.000003 0.000000 2.049400 -4.933418 45.096112 2.004359 -4.888262 44.570116 0.519277 -2.641169 22.242275 0.000003 -0.000000 0.000000 2.049383 -4.933438 45.096102 2.004363 -4.888299 44.570113 0.519278 -2.641167 22.242279 -0.000000 -0.000000 0.000001 2.049396 -4.933416 45.096116 2.004353 -4.888288 44.570123 0.519272 -2.641172 22.242263 -0.000002 -0.000001 0.000002 -14.068974 -1.181026 6.176092 21.681952 9.088484 -0.368098 -6.322522 4.570760 -3.694196 -0.091753 -0.000003 0.000000 -0.000000 0.000000 -0.000000 -10.644455 -2.562722 0.339949 11.870847 -7.687684 -1.191177 -0.115063 -3.987260 3.767602 -0.197547 0.000002 -0.000000 -0.000000 0.000002 0.000000 
3.270470 199.407013 2.778911 -0.472306 -2.232657 -3.315881 0.299276 1.253993 -3.287601 0.416042 2.581241 -0.653672 0.429208 2.583004 -0.660940 1.945116 -0.312453 1.021214 15.327071 -0.043711 1.153190 -0.000001 0.000000 -0.000000 -0.000001 0.000000 -0.000000 -0.000001 0.000000 -0.000000 2.177344 -4.723351 4.864752 10.696961 -36.056234 -60.693307 0.000010 -29.612425 -0.000008 -36.586506 29.861341 11.895352 0.024045 0.576126 -4.779708 0.019244 0.515484 -4.275558 0.004777 0.256960 -2.129738 0.000002 0.000000 -0.000001 -1.578447 6.571780 6.571622 4.965043 20.839551 1.673414 0.003030 8.005389 3.162058 0.000001 0.000001 -0.000002 0.024206 0.578052 -4.795688 0.019104 0.513559 -4.259577 0.004772 0.256958 -2.129737 -0.000000 0.000001 0.000000 0.024204 0.578052 -4.795690 0.019097 0.513563 -4.259565 0.004781 0.256956 -2.129739 -0.000005 -0.000001 -0.000001 0.345943 4.619589 -4.299878 0.005631 -3.540883 -4.768982 0.004777 0.256959 -2.129746 -0.000001 0.000000 0.000001 -2.638109 -8.325142 -15.135766 -105.670813 -11.709408 43.666827 0.000017 137.831086 -0.000021 -39.845322 3.305266 6.306926 1.817999 -4.692296 42.338816 1.714501 -4.576504 41.057896 0.441756 -2.443234 20.494678 0.000000 -0.000003 -0.000002 -1.866406 -5.049687 -6.814154 5.721774 -20.938438 -1.035267 -0.713416 -5.998317 -2.743919 0.000003 -0.000001 0.000001 1.817991 -4.692299 42.338816 1.714510 -4.576481 41.057886 0.441763 -2.443240 20.494684 0.000001 -0.000001 -0.000003 1.817999 -4.692303 42.338813 1.714497 -4.576497 41.057889 0.441754 -2.443223 20.494686 0.000000 -0.000001 0.000003 1.817988 -4.692297 42.338826 1.714505 -4.576498 41.057879 0.441758 -2.443232 20.494684 -0.000001 -0.000003 0.000002 -14.075249 -1.033546 6.122798 21.768984 9.094337 -0.231670 -6.307570 4.794673 -3.765424 -0.090559 0.000002 -0.000000 0.000000 0.000001 0.000000 -10.807417 -2.547815 0.272153 12.047403 -7.628153 -1.119458 -0.074336 -3.406126 3.717397 -0.191424 -0.000010 -0.000000 -0.000000 -0.000000 0.000000 
